<svg width="384" height="335" viewBox="0 0 384 335" fill="none" xmlns="http://www.w3.org/2000/svg">
    <mask id="path-1-outside-1_26_177" maskUnits="userSpaceOnUse" x="24.6033" y="0" width="337" height="335" fill="black">
        <rect fill="white" x="24.6033" width="337" height="335"/>
        <path d="M41.526 141.134L36.6396 162.634L34.4025 177.905C34.3954 177.953 34.3919 178.001 34.3919 178.05V180.811L33.8055 185.893L33.1215 193.32V198.988V204.461V210.207C33.1215 210.285 33.1122 210.363 33.0938 210.44L32.5351 212.768L31.1669 217.752L30.2874 222.345L29.6033 230.945V238.861L30.6783 247.266L31.739 252.762C31.7485 252.811 31.7617 252.86 31.7785 252.907L34.3919 260.263L38.4964 269.059L44.4578 278.441L49.4832 284.916C49.5207 284.964 49.5626 285.009 49.6084 285.05L60.1919 294.468L69.4138 301.069C69.4552 301.099 69.4988 301.125 69.5442 301.148L77.3919 305.12L92.4419 312.157L105.537 316.457L123.91 321.147L140.915 324.177L153.815 326.327L168.18 328.868L183.719 329.747H203.558L215.774 328.868L220.855 327.793L236.492 325.545L253.301 322.613L268.449 319.682L281.349 316.554L300.112 309.713L313.012 303.361L323.273 296.716C325.391 294.989 329.684 291.458 329.919 291.145C330.154 290.833 334.382 286.976 336.467 285.086C338.78 282.415 343.425 276.994 343.503 276.682C343.601 276.291 348.585 267.398 348.976 266.909C349.367 266.42 351.712 259.775 352.103 259.188C352.494 258.602 353.764 251.957 354.253 251.37C354.742 250.784 354.937 247.07 354.937 246.386C354.937 245.702 355.719 240.718 355.719 240.034V236.516C355.719 236.203 355.98 232.835 355.719 231.336L354.937 224.398L354.263 219.2C354.256 219.147 354.246 219.096 354.231 219.045C353.864 217.79 353.136 214.804 352.983 214.038C352.787 213.061 352.103 211.595 352.103 210.618V207.979L351.908 198.304C351.97 194.182 351.259 185.713 351.055 183.284L351.028 182.961C350.872 181.085 350.116 174.296 349.562 171.039L347.51 159.604L344.969 148.366L342.157 137.409C342.142 137.352 342.123 137.298 342.099 137.243C340.307 133.291 337.597 124.217 337.053 122.664C336.506 121.1 332.949 113.901 331.678 110.839L326.01 100.382L318.876 89.4363L312.426 81.0318L306.367 74.3863L300.112 68.3272L292.783 62.1704L285.16 57.2841L278.71 52.8863L270.501 48.6841L263.758 45.4591L256.233 42.625L249.88 40.3772L244.364 38.5701C244.263 38.5372 244.158 38.5204 244.053 38.5204H240.303H235.724C235.65 38.5204 235.576 38.5299 235.504 38.5487L233.509 39.072C232.872 39.2393 232.506 38.3709 233.071 38.0318L238.848 34.4695C238.906 34.4338 238.96 34.3924 239.009 34.3459L242.298 31.2448C242.336 31.2089 242.371 31.1701 242.403 31.1287L245.678 26.8909L247.961 23.1809C248.003 23.1136 248.036 23.0415 248.06 22.9664L249.392 18.8773L249.783 17.3136L249.854 17.0269C250.04 16.2829 249.354 15.615 248.615 15.8212L246.069 16.5318L241.574 17.5091L237.078 18.1932L229.944 18.5841L220.758 17.8023H214.086C214.038 17.8023 213.991 17.8056 213.944 17.8123L208.621 18.5727C208.568 18.5803 208.516 18.5921 208.465 18.6079L202.681 20.4097C202.614 20.4304 202.55 20.4581 202.489 20.4923L198.656 22.6423C198.601 22.6731 198.549 22.709 198.501 22.7496L194.86 25.8159L188.121 30.4369C188.053 30.4833 187.98 30.5212 187.903 30.5498L185.674 31.3769C184.7 31.7381 183.889 30.5593 184.575 29.7792L187.493 26.4586C187.582 26.357 187.65 26.2382 187.692 26.1096L189.316 21.1484C189.363 21.0044 189.377 20.8515 189.356 20.7014L188.724 16.0941C188.71 15.9955 188.682 15.8996 188.64 15.8093L185.651 9.36321C185.601 9.25675 185.533 9.15981 185.45 9.07683L182.419 6.04566C181.919 5.54507 181.071 5.70885 180.793 6.35985L176.848 15.593C176.803 15.6969 176.741 15.7925 176.665 15.8758L169.351 23.8552C169.287 23.9241 169.215 23.9838 169.135 24.0326L157.494 31.1522C157.452 31.178 157.408 31.2006 157.362 31.2198L145.899 36.0772L125.083 43.8954L109.349 51.225L93.1988 61.4403C93.1503 61.4709 93.1046 61.5057 93.0621 61.5442L77.659 75.4941C77.6113 75.5373 77.5701 75.5822 77.5315 75.6336C74.7799 79.2977 67.2403 88.2341 66.1532 89.6318C65.0587 91.039 60.6154 99.9908 57.7487 104.389L48.4646 122.077L41.526 141.134Z"/>
    </mask>
    <path d="M41.526 141.134L36.6396 162.634L34.4025 177.905C34.3954 177.953 34.3919 178.001 34.3919 178.05V180.811L33.8055 185.893L33.1215 193.32V198.988V204.461V210.207C33.1215 210.285 33.1122 210.363 33.0938 210.44L32.5351 212.768L31.1669 217.752L30.2874 222.345L29.6033 230.945V238.861L30.6783 247.266L31.739 252.762C31.7485 252.811 31.7617 252.86 31.7785 252.907L34.3919 260.263L38.4964 269.059L44.4578 278.441L49.4832 284.916C49.5207 284.964 49.5626 285.009 49.6084 285.05L60.1919 294.468L69.4138 301.069C69.4552 301.099 69.4988 301.125 69.5442 301.148L77.3919 305.12L92.4419 312.157L105.537 316.457L123.91 321.147L140.915 324.177L153.815 326.327L168.18 328.868L183.719 329.747H203.558L215.774 328.868L220.855 327.793L236.492 325.545L253.301 322.613L268.449 319.682L281.349 316.554L300.112 309.713L313.012 303.361L323.273 296.716C325.391 294.989 329.684 291.458 329.919 291.145C330.154 290.833 334.382 286.976 336.467 285.086C338.78 282.415 343.425 276.994 343.503 276.682C343.601 276.291 348.585 267.398 348.976 266.909C349.367 266.42 351.712 259.775 352.103 259.188C352.494 258.602 353.764 251.957 354.253 251.37C354.742 250.784 354.937 247.07 354.937 246.386C354.937 245.702 355.719 240.718 355.719 240.034V236.516C355.719 236.203 355.98 232.835 355.719 231.336L354.937 224.398L354.263 219.2C354.256 219.147 354.246 219.096 354.231 219.045C353.864 217.79 353.136 214.804 352.983 214.038C352.787 213.061 352.103 211.595 352.103 210.618V207.979L351.908 198.304C351.97 194.182 351.259 185.713 351.055 183.284L351.028 182.961C350.872 181.085 350.116 174.296 349.562 171.039L347.51 159.604L344.969 148.366L342.157 137.409C342.142 137.352 342.123 137.298 342.099 137.243C340.307 133.291 337.597 124.217 337.053 122.664C336.506 121.1 332.949 113.901 331.678 110.839L326.01 100.382L318.876 89.4363L312.426 81.0318L306.367 74.3863L300.112 68.3272L292.783 62.1704L285.16 57.2841L278.71 52.8863L270.501 48.6841L263.758 45.4591L256.233 42.625L249.88 40.3772L244.364 38.5701C244.263 38.5372 244.158 38.5204 244.053 38.5204H240.303H235.724C235.65 38.5204 235.576 38.5299 235.504 38.5487L233.509 39.072C232.872 39.2393 232.506 38.3709 233.071 38.0318L238.848 34.4695C238.906 34.4338 238.96 34.3924 239.009 34.3459L242.298 31.2448C242.336 31.2089 242.371 31.1701 242.403 31.1287L245.678 26.8909L247.961 23.1809C248.003 23.1136 248.036 23.0415 248.06 22.9664L249.392 18.8773L249.783 17.3136L249.854 17.0269C250.04 16.2829 249.354 15.615 248.615 15.8212L246.069 16.5318L241.574 17.5091L237.078 18.1932L229.944 18.5841L220.758 17.8023H214.086C214.038 17.8023 213.991 17.8056 213.944 17.8123L208.621 18.5727C208.568 18.5803 208.516 18.5921 208.465 18.6079L202.681 20.4097C202.614 20.4304 202.55 20.4581 202.489 20.4923L198.656 22.6423C198.601 22.6731 198.549 22.709 198.501 22.7496L194.86 25.8159L188.121 30.4369C188.053 30.4833 187.98 30.5212 187.903 30.5498L185.674 31.3769C184.7 31.7381 183.889 30.5593 184.575 29.7792L187.493 26.4586C187.582 26.357 187.65 26.2382 187.692 26.1096L189.316 21.1484C189.363 21.0044 189.377 20.8515 189.356 20.7014L188.724 16.0941C188.71 15.9955 188.682 15.8996 188.64 15.8093L185.651 9.36321C185.601 9.25675 185.533 9.15981 185.45 9.07683L182.419 6.04566C181.919 5.54507 181.071 5.70885 180.793 6.35985L176.848 15.593C176.803 15.6969 176.741 15.7925 176.665 15.8758L169.351 23.8552C169.287 23.9241 169.215 23.9838 169.135 24.0326L157.494 31.1522C157.452 31.178 157.408 31.2006 157.362 31.2198L145.899 36.0772L125.083 43.8954L109.349 51.225L93.1988 61.4403C93.1503 61.4709 93.1046 61.5057 93.0621 61.5442L77.659 75.4941C77.6113 75.5373 77.5701 75.5822 77.5315 75.6336C74.7799 79.2977 67.2403 88.2341 66.1532 89.6318C65.0587 91.039 60.6154 99.9908 57.7487 104.389L48.4646 122.077L41.526 141.134Z" fill="white"/>
    <path d="M41.526 141.134L36.6396 162.634L34.4025 177.905C34.3954 177.953 34.3919 178.001 34.3919 178.05V180.811L33.8055 185.893L33.1215 193.32V198.988V204.461V210.207C33.1215 210.285 33.1122 210.363 33.0938 210.44L32.5351 212.768L31.1669 217.752L30.2874 222.345L29.6033 230.945V238.861L30.6783 247.266L31.739 252.762C31.7485 252.811 31.7617 252.86 31.7785 252.907L34.3919 260.263L38.4964 269.059L44.4578 278.441L49.4832 284.916C49.5207 284.964 49.5626 285.009 49.6084 285.05L60.1919 294.468L69.4138 301.069C69.4552 301.099 69.4988 301.125 69.5442 301.148L77.3919 305.12L92.4419 312.157L105.537 316.457L123.91 321.147L140.915 324.177L153.815 326.327L168.18 328.868L183.719 329.747H203.558L215.774 328.868L220.855 327.793L236.492 325.545L253.301 322.613L268.449 319.682L281.349 316.554L300.112 309.713L313.012 303.361L323.273 296.716C325.391 294.989 329.684 291.458 329.919 291.145C330.154 290.833 334.382 286.976 336.467 285.086C338.78 282.415 343.425 276.994 343.503 276.682C343.601 276.291 348.585 267.398 348.976 266.909C349.367 266.42 351.712 259.775 352.103 259.188C352.494 258.602 353.764 251.957 354.253 251.37C354.742 250.784 354.937 247.07 354.937 246.386C354.937 245.702 355.719 240.718 355.719 240.034V236.516C355.719 236.203 355.98 232.835 355.719 231.336L354.937 224.398L354.263 219.2C354.256 219.147 354.246 219.096 354.231 219.045C353.864 217.79 353.136 214.804 352.983 214.038C352.787 213.061 352.103 211.595 352.103 210.618V207.979L351.908 198.304C351.97 194.182 351.259 185.713 351.055 183.284L351.028 182.961C350.872 181.085 350.116 174.296 349.562 171.039L347.51 159.604L344.969 148.366L342.157 137.409C342.142 137.352 342.123 137.298 342.099 137.243C340.307 133.291 337.597 124.217 337.053 122.664C336.506 121.1 332.949 113.901 331.678 110.839L326.01 100.382L318.876 89.4363L312.426 81.0318L306.367 74.3863L300.112 68.3272L292.783 62.1704L285.16 57.2841L278.71 52.8863L270.501 48.6841L263.758 45.4591L256.233 42.625L249.88 40.3772L244.364 38.5701C244.263 38.5372 244.158 38.5204 244.053 38.5204H240.303H235.724C235.65 38.5204 235.576 38.5299 235.504 38.5487L233.509 39.072C232.872 39.2393 232.506 38.3709 233.071 38.0318L238.848 34.4695C238.906 34.4338 238.96 34.3924 239.009 34.3459L242.298 31.2448C242.336 31.2089 242.371 31.1701 242.403 31.1287L245.678 26.8909L247.961 23.1809C248.003 23.1136 248.036 23.0415 248.06 22.9664L249.392 18.8773L249.783 17.3136L249.854 17.0269C250.04 16.2829 249.354 15.615 248.615 15.8212L246.069 16.5318L241.574 17.5091L237.078 18.1932L229.944 18.5841L220.758 17.8023H214.086C214.038 17.8023 213.991 17.8056 213.944 17.8123L208.621 18.5727C208.568 18.5803 208.516 18.5921 208.465 18.6079L202.681 20.4097C202.614 20.4304 202.55 20.4581 202.489 20.4923L198.656 22.6423C198.601 22.6731 198.549 22.709 198.501 22.7496L194.86 25.8159L188.121 30.4369C188.053 30.4833 187.98 30.5212 187.903 30.5498L185.674 31.3769C184.7 31.7381 183.889 30.5593 184.575 29.7792L187.493 26.4586C187.582 26.357 187.65 26.2382 187.692 26.1096L189.316 21.1484C189.363 21.0044 189.377 20.8515 189.356 20.7014L188.724 16.0941C188.71 15.9955 188.682 15.8996 188.64 15.8093L185.651 9.36321C185.601 9.25675 185.533 9.15981 185.45 9.07683L182.419 6.04566C181.919 5.54507 181.071 5.70885 180.793 6.35985L176.848 15.593C176.803 15.6969 176.741 15.7925 176.665 15.8758L169.351 23.8552C169.287 23.9241 169.215 23.9838 169.135 24.0326L157.494 31.1522C157.452 31.178 157.408 31.2006 157.362 31.2198L145.899 36.0772L125.083 43.8954L109.349 51.225L93.1988 61.4403C93.1503 61.4709 93.1046 61.5057 93.0621 61.5442L77.659 75.4941C77.6113 75.5373 77.5701 75.5822 77.5315 75.6336C74.7799 79.2977 67.2403 88.2341 66.1532 89.6318C65.0587 91.039 60.6154 99.9908 57.7487 104.389L48.4646 122.077L41.526 141.134Z" stroke="#243335" stroke-width="10" mask="url(#path-1-outside-1_26_177)"/>
    <path d="M234.048 168.009L230.53 172.505L229.651 173.678L228.771 175.241C228.38 175.893 227.579 177.254 227.501 177.489C227.422 177.723 226.817 178.955 226.523 179.541L225.546 182.962L224.471 187.75L224.08 193.516V197.914V203.191V205.732C224.08 205.967 224.341 207.068 224.471 207.589L225.057 209.739L225.546 211.791L226.914 214.723L228.087 216.971L228.967 218.437L229.944 219.805L234.83 224.3L242.648 229.284L253.985 235.246L264.246 240.523L270.403 243.259L277.048 246.093L283.01 247.95L290.242 249.416L293.662 250.296H300.21L306.757 249.123L312.523 247.071C313.989 246.126 316.96 244.178 317.116 243.943C317.273 243.709 319.657 241.174 320.83 239.937L323.664 235.539L325.716 230.066L326.791 225.668C326.954 223.812 327.28 220.02 327.28 219.707V213.746C327.28 213.453 326.694 209.153 326.791 208.859C326.87 208.625 326.368 206.09 326.107 204.853L324.055 197.816L322.101 192.734L319.853 188.337L316.628 183.45L313.501 179.248L309.201 174.459L304.216 169.768L299.135 165.859L294.639 163.221L290.242 161.071L284.964 158.921L280.371 157.748L276.462 156.771L271.869 155.793H266.982H262.194L255.646 156.478L248.805 158.334L243.039 161.071L237.86 164.491L234.048 168.009Z" fill="#5F7D83"/>
    <path d="M151.275 167.911L154.793 172.407L155.672 173.579L156.552 175.143C156.943 175.795 157.744 177.156 157.822 177.391C157.901 177.625 158.507 178.857 158.8 179.443L159.777 182.863L160.852 187.652L161.243 193.418V197.816V203.093V205.634C161.243 205.868 160.982 206.97 160.852 207.491L160.266 209.641L159.777 211.693L158.409 214.625L157.236 216.873L156.357 218.338L155.379 219.707L150.493 224.202L142.675 229.186L131.338 235.148L121.077 240.425L114.92 243.161L108.275 245.995L102.313 247.852L95.0816 249.318L91.6612 250.198H85.1134L78.5657 249.025L72.7998 246.973C71.3339 246.028 68.363 244.08 68.2066 243.845C68.0503 243.611 65.6657 241.076 64.493 239.838L61.6589 235.441L59.6066 229.968L58.5316 225.57C58.3688 223.713 58.043 219.922 58.043 219.609V213.648C58.043 213.354 58.6294 209.054 58.5316 208.761C58.4535 208.527 58.9551 205.992 59.2157 204.754L61.268 197.718L63.2225 192.636L65.4703 188.238L68.6953 183.352L71.8225 179.15L76.1225 174.361L81.1066 169.67L86.1884 165.761L90.6839 163.123L95.0816 160.973L100.359 158.823L104.952 157.65L108.861 156.673L113.454 155.695H118.341H123.129L129.677 156.379L136.518 158.236L142.284 160.973L147.463 164.393L151.275 167.911Z" fill="#5F7D83"/>
    <path d="M177.489 207.399L176.522 208.222C176.182 208.51 175.934 208.89 175.806 209.316C175.742 209.531 175.709 209.755 175.709 209.979V210.032C175.709 210.227 175.73 210.42 175.772 210.61L175.801 210.739C175.87 211.048 175.976 211.347 176.117 211.63L176.197 211.791L176.588 212.67L176.979 213.354L177.154 213.656C177.752 214.688 178.481 215.638 179.325 216.481L180.497 217.752L181.768 218.925L182.647 219.609L184.602 220.977L186.068 221.856C186.783 222.377 187.541 222.837 188.332 223.233L188.707 223.42L189.879 223.909C190.852 224.168 191.855 224.3 192.862 224.3H193.3L194.157 224.192C194.627 224.134 195.092 224.039 195.547 223.909C196.199 223.648 197.522 223.107 197.6 223.029C197.678 222.951 199.131 222.085 199.847 221.661L201.9 220.293L203.757 218.925C204.731 218.145 205.616 217.26 206.395 216.286L207.177 215.309L207.959 214.429C208.252 214.006 208.838 213.139 208.838 213.061C208.838 212.333 209.473 211.746 209.684 211.049C209.705 210.978 209.718 210.928 209.718 210.911V210.494C209.718 210.059 209.635 209.629 209.474 209.225C209.376 208.982 209.251 208.75 209.101 208.535L209.015 208.413C208.768 208.06 208.474 207.743 208.14 207.47L208.048 207.395C207.729 207.134 207.382 206.909 207.013 206.724L205.809 206.122L203.366 205.243L200.727 204.657L197.991 204.266L194.668 203.972H191.247L187.045 204.363L182.745 205.243L181.455 205.519C180.497 205.725 179.576 206.077 178.725 206.563L178.489 206.698C178.135 206.9 177.8 207.135 177.489 207.399Z" fill="#243335"/>
    <path d="M186.866 205.929L186.132 206.196C186.087 206.212 186.047 206.238 186.014 206.271C185.983 206.302 185.958 206.339 185.942 206.38L185.891 206.508C185.813 206.702 185.799 206.916 185.849 207.119L185.869 207.198C185.996 207.516 186.217 207.788 186.502 207.979L186.651 208.077C187.104 208.336 187.596 208.521 188.107 208.623L188.312 208.664L189.485 208.957L190.267 209.055L192.124 209.152H193.589H193.767C194.494 209.152 195.22 209.087 195.935 208.957L197.108 208.664L197.407 208.609C197.92 208.516 198.414 208.336 198.867 208.077L199.168 207.877C199.356 207.752 199.513 207.586 199.629 207.393C199.707 207.264 199.766 207.124 199.798 206.977C199.822 206.866 199.844 206.754 199.844 206.709C199.844 206.687 199.828 206.654 199.804 206.616C199.663 206.398 199.433 206.259 199.201 206.144C199.044 206.065 198.878 206.004 198.708 205.961L198.183 205.83L197.401 205.634L196.521 205.537L195.446 205.439L194.567 205.341L194.555 205.338C194.303 205.275 194.044 205.243 193.785 205.243H193.003H192.319L191.244 205.341L190.169 205.439L189.289 205.537L188.117 205.634L187.425 205.773C187.235 205.811 187.048 205.863 186.866 205.929Z" fill="#5F7D83"/>
    <path d="M24.1526 25.3122L24.0076 25.396L23.875 25.4983L23.0117 26.1644C15.089 32.278 9.25134 40.6928 6.29931 50.2548L6.1067 50.8787L6.10202 50.8938L6.09753 50.9091L4.51138 56.2882C2.47599 63.1908 2.48242 70.5351 4.52987 77.4341C5.64404 81.1884 7.3429 84.7436 9.56394 87.9689L17.6751 99.7476L17.7557 99.8648L17.8491 99.972L27.8327 111.431C28.8584 112.609 30.0863 113.593 31.4584 114.338C37.9793 117.88 46.1371 115.304 49.442 108.66L53.0341 101.439C53.6032 100.295 54.31 99.2224 55.1387 98.2331C57.9045 94.9312 61.504 90.5349 64.42 86.746C65.8743 84.8562 67.1835 83.0854 68.1384 81.6637C68.6128 80.9574 69.0296 80.2933 69.3373 79.7197C69.4903 79.4344 69.6401 79.1277 69.7575 78.8209C69.8306 78.6299 69.944 78.3078 69.9956 77.9174C70.0059 77.8975 70.0183 77.8746 70.0329 77.8483C70.1694 77.6027 70.4052 77.242 70.7578 76.7633C71.4569 75.8142 72.4684 74.5978 73.6671 73.2378C76.0549 70.5286 79.0462 67.4063 81.414 65.0117C82.2738 64.142 83.2229 63.3531 84.2453 62.6418L91.1993 57.8043C98.7788 52.5316 100.929 42.2618 96.1019 34.3911C94.8502 32.3503 93.1913 30.5893 91.2288 29.218L78.5318 20.3464L78.4066 20.2589L78.2717 20.1874C71.5797 16.6364 64.0829 15.1666 56.6444 15.3084C54.6565 15.3462 52.8046 15.3415 51.3282 15.2719C50.5885 15.2371 49.9765 15.1875 49.5059 15.1253C49.0818 15.0693 48.887 15.017 48.8428 15.0051C48.8326 15.0024 48.8305 15.0018 48.8354 15.0039C48.2563 14.7642 47.691 14.7268 47.292 14.7321C46.8677 14.7378 46.444 14.7961 46.0521 14.8726C45.2699 15.0254 44.3895 15.2964 43.4838 15.623C41.6603 16.2804 39.4443 17.2698 37.1572 18.3765C32.5675 20.5972 27.4587 23.4043 24.1526 25.3122Z" fill="#5F7D83" stroke="#243335" stroke-width="5"/>
    <path d="M377.889 85.8704L377.962 85.7251L378.016 85.5715L378.749 83.4796C380.556 78.3239 381.48 72.8999 381.48 67.4366V64.14C381.48 58.5815 380.415 53.0743 378.344 47.9159C376.644 43.679 374.287 39.736 371.361 36.2312L370.012 34.6153C367.643 31.7777 364.957 29.2203 362.007 26.9928L360.59 25.9227C357.822 23.8324 354.838 22.0452 351.688 20.5916L348.294 19.0249C344.026 17.0554 339.481 15.7562 334.817 15.1733L334.077 15.0807C328.833 14.4253 323.513 14.7705 318.397 16.0981C314.501 17.1092 310.772 18.6781 307.325 20.7559L300.865 24.6496C298.676 25.9686 296.743 27.6704 295.157 29.6737L288.813 37.6876C284.488 43.1499 285.742 51.1302 291.51 55.0084L301.539 62.9152L311.725 71.9481L321.72 83.3849L327.59 91.2564C329.271 93.5097 330.729 95.9207 331.944 98.4554L336.853 108.693L336.895 108.781L336.943 108.865L337.083 109.106L339.246 107.853L337.083 109.106C340.678 115.317 348.546 117.566 354.881 114.195C356.046 113.575 357.112 112.786 358.045 111.853L364.329 105.569L364.357 105.541L364.384 105.513L367.362 102.341C370.542 98.955 373.218 95.1303 375.31 90.9838L377.889 85.8704Z" fill="#5F7D83" stroke="#243335" stroke-width="5"/>
    <path d="M11.3753 49.6559L8.95369 54.1965C8.61838 54.8252 7.66902 54.4644 7.80876 53.7657C7.90649 53.2771 8.98149 49.5634 9.17694 49.5634C9.3724 49.5634 10.1542 44.7748 10.4474 44.3839C10.7406 43.993 11.4247 42.5271 11.4247 41.5498C11.4247 40.768 12.5974 39.3998 13.1838 38.8134C14.3565 37.7059 16.7997 34.3766 17.1906 34.2202C17.5815 34.0639 19.3406 31.9725 21.0997 30.7998C23.9611 28.4586 27.0167 26.3653 30.2334 24.5425L31.2633 23.9589L36.3451 21.418C38.2019 20.7665 42.0719 19.4048 42.6974 19.1703C43.3228 18.9357 47.9746 17.8998 50.2224 17.4112C53.4753 17.1509 56.7432 17.137 59.9982 17.3695L60.5815 17.4112L63.4811 17.8254C67.0042 18.3287 70.4422 19.3106 73.6997 20.7439L74.8688 21.2583C77.3205 22.3371 79.615 23.7425 81.69 25.4363L82.0199 25.7057C82.9068 26.4296 83.8446 27.0886 84.8263 27.6776C86.1207 28.4543 87.3384 29.3523 88.4627 30.3596L91.3495 32.9457C91.425 33.0133 91.4913 33.0905 91.5467 33.1754L92.0693 33.9768C92.6215 34.8234 91.6376 35.8289 90.7792 35.2952L86.7723 32.4612L83.9383 30.7998L81.2019 28.8453C78.668 27.4808 75.9979 26.3859 73.2356 25.5785L71.0383 24.9362C67.4622 24.286 63.8349 23.9589 60.2002 23.9589H58.6269C53.0328 24.6094 47.4995 25.705 42.0796 27.2353L41.9156 27.2816L33.6087 30.7998C29.3796 33.077 25.3237 35.6622 21.4738 38.5343L21.0997 38.8134L17.1906 42.5271L14.6497 45.3612L11.4885 49.4803C11.446 49.5356 11.4082 49.5943 11.3753 49.6559Z" fill="#CFCFD8"/>
    <path d="M171.676 237.383C171.299 237.287 170.899 237.192 170.469 237.097C170.458 237.095 170.446 237.093 170.435 237.093C170.347 237.093 170.275 237.165 170.275 237.253V237.574C170.275 237.613 170.28 237.651 170.289 237.689L170.452 238.351L170.629 239.069L171.159 240.506L171.865 242.123L172.749 243.56L173.059 244.05C173.909 245.394 174.933 246.618 176.106 247.691C177.164 248.647 178.298 249.517 179.496 250.292L179.64 250.385L179.778 250.47C180.862 251.131 181.998 251.703 183.174 252.182L186.001 252.9L189.005 253.259H192.008L193.251 253.185C194.421 253.115 195.579 252.91 196.702 252.574C197.576 252.313 198.425 251.974 199.238 251.56L199.888 251.23C201.228 250.549 202.5 249.739 203.684 248.813L204.2 248.409L205.735 246.961C206.36 246.371 206.938 245.733 207.464 245.052C208.23 244.06 208.882 242.984 209.405 241.845L209.854 240.865C210.568 238.69 209.338 237.863 207.087 238.279C203.06 239.024 199.693 239.628 196.892 240.112C188.295 241.601 180.324 239.577 171.875 237.433L171.676 237.383Z" fill="#243335"/>
    <path d="M254.577 93.4725L252.914 94.6163L252.394 95.2402L251.978 95.6561L251.77 95.9681L251.25 96.592L250.938 97.2159L250.418 98.2557L250.106 98.8796L249.794 99.6075L249.586 100.439L249.482 101.167L249.378 101.791V103.455L249.482 104.183L249.69 105.015V105.534L249.898 106.054L250.21 106.886L250.522 107.614L250.834 108.134L251.146 108.758L251.77 109.59L252.602 110.422L253.329 111.045L254.265 111.669L256.241 112.397L259.152 113.125L264.248 114.061L269.239 114.685L273.502 115.205L277.661 116.037L281.613 116.764L284.524 117.492L287.02 118.116L286.396 116.245L285.252 113.437L284.108 111.253L282.236 108.134L280.677 105.95L279.013 103.559L276.413 100.647C276.171 100.37 275.686 99.7946 275.686 99.7114C275.686 99.6283 275.062 99.0529 274.75 98.7756L273.71 97.9437L272.774 97.0079L272.254 96.488L271.11 95.6561L270.383 95.0323L269.447 94.6163L268.719 94.0964L267.991 93.7845L267.159 93.2646L266.535 92.9526L265.703 92.5367L264.56 92.2247L263.52 92.0168L262.584 91.9128L261.752 91.7048H260.608H259.776L258.737 91.9128L257.697 92.1208L256.761 92.4327L254.577 93.4725Z" fill="#243335"/>
    <path d="M133.436 93.3693L135.1 94.5131L135.62 95.1369L136.036 95.5529L136.244 95.8648L136.763 96.4887L137.075 97.1126L137.595 98.1524L137.907 98.7763L138.219 99.5042L138.427 100.336L138.531 101.064L138.635 101.688V103.352L138.531 104.079L138.323 104.911V105.431L138.115 105.951L137.803 106.783L137.491 107.511L137.179 108.031L136.867 108.655L136.244 109.486L135.412 110.318L134.684 110.942L133.748 111.566L131.772 112.294L128.861 113.022L123.766 113.958L118.775 114.582L114.511 115.101L110.352 115.933L106.401 116.661L103.489 117.389L100.994 118.013L101.618 116.141L102.761 113.334L103.905 111.15L105.777 108.031L107.337 105.847L109 103.455L111.6 100.544C111.842 100.267 112.328 99.6914 112.328 99.6082C112.328 99.525 112.952 98.9496 113.264 98.6723L114.303 97.8405L115.239 96.9046L115.759 96.3847L116.903 95.5529L117.631 94.929L118.567 94.5131L119.294 93.9931L120.022 93.6812L120.854 93.1613L121.478 92.8493L122.31 92.4334L123.454 92.1215L124.494 91.9135L125.429 91.8095L126.261 91.6016H127.405H128.237L129.277 91.8095L130.317 92.0175L131.252 92.3294L133.436 93.3693Z" fill="#243335"/>
    <path d="M251.373 203.684L250.321 207.889C250.132 208.646 250.705 209.38 251.486 209.38C251.615 209.38 251.743 209.359 251.865 209.318L254.279 208.514C255.999 207.94 257.801 207.648 259.615 207.648H263.805H274.197H288.326C289.297 207.648 290.267 207.728 291.225 207.888L296.884 208.831C298.951 209.176 301.057 208.501 302.538 207.019L303.586 205.972C304.682 204.876 305.064 203.255 304.574 201.785C304.017 200.115 302.454 198.988 300.693 198.988H296.713H277.661H263.805H258.08C256.201 198.988 254.398 199.735 253.069 201.064L252.579 201.554C251.991 202.142 251.574 202.878 251.373 203.684Z" fill="#243335"/>
    <path d="M134.21 203.684L135.262 207.889C135.451 208.646 134.878 209.38 134.097 209.38C133.968 209.38 133.84 209.359 133.718 209.318L131.304 208.514C129.584 207.94 127.782 207.648 125.968 207.648H121.778H111.386H97.2574C96.286 207.648 95.3162 207.728 94.358 207.888L88.6989 208.831C86.6321 209.176 84.5263 208.501 83.0447 207.019L81.9974 205.972C80.9016 204.876 80.519 203.255 81.009 201.785C81.5659 200.115 83.1293 198.988 84.8902 198.988H88.8696H107.922H121.778H127.503C129.382 198.988 131.185 199.735 132.514 201.064L133.005 201.554C133.592 202.142 134.009 202.878 134.21 203.684Z" fill="#243335"/>
</svg>
